<svg width="177" height="112" viewBox="0 0 177 112" fill="none" xmlns="http://www.w3.org/2000/svg">
    <rect width="177" height="112" rx="10" fill="#D2D4D9"/>
    <rect x="14.4497" y="49.462" width="48.5714" height="52.3846" rx="4" stroke="white" stroke-width="2"/>
    <rect x="77.4708" y="48.462" width="86.079" height="9.69232" rx="4.84616" fill="white"/>
    <rect x="77.4708" y="63.538" width="86.079" height="4.84616" rx="2.42308" fill="white"/>
    <rect x="47.3438" y="12.3852" width="116.207" height="4.84615" rx="2.42308" fill="white"/>
    <rect x="77.4708" y="74.8458" width="86.079" height="4.84616" rx="2.42308" fill="white"/>
    <rect x="77.4708" y="86.1542" width="86.079" height="4.84616" rx="2.42308" fill="white"/>
    <rect x="77.4708" y="97.462" width="86.079" height="4.84616" rx="2.42308" fill="white"/>
    <path d="M46.4367 86.6786C42.3383 90.7806 35.6699 90.7806 31.5714 86.6786C31.2909 86.3979 30.8362 86.3979 30.5557 86.6786C30.2751 86.9594 30.2751 87.4146 30.5557 87.6953C32.8849 90.0265 35.9445 91.1921 39.0041 91.1921C42.0637 91.1921 45.1233 90.0265 47.4525 87.6953C47.7331 87.4146 47.7331 86.9594 47.4525 86.6786C47.172 86.3979 46.7172 86.3979 46.4367 86.6786Z" fill="white"/>
    <path d="M55.9515 80.9938C55.9515 79.0411 54.541 77.4129 52.6866 77.0734V65.0476C52.6866 63.4875 51.9111 62.0412 50.6123 61.1786C49.3923 60.3686 47.8779 60.1847 46.5084 60.6677L41.9992 59.1358C38.5343 57.9586 34.887 57.8378 31.4518 58.7865C26.9546 60.0284 24.3764 62.6545 23.9784 66.3875C23.6262 66.8524 23.3463 67.3746 23.1562 67.938L22.8064 68.9741C22.6187 69.5304 22.8256 70.115 23.3216 70.4288C23.8174 70.7426 24.4339 70.6792 24.8555 70.2708C24.9995 70.1312 25.157 70.0137 25.3227 69.9154V77.0734C23.4683 77.4129 22.0578 79.0411 22.0578 80.9938C22.0578 83.0247 23.5833 84.7045 25.5474 84.9488C26.0406 87.6747 27.3367 90.1891 29.3186 92.2013C31.9061 94.8283 35.3459 96.275 39.0047 96.275C39.0051 96.275 39.0056 96.275 39.006 96.275C42.6601 96.2747 46.0954 94.8503 48.6792 92.2643C50.6975 90.2442 52.0076 87.7041 52.4846 84.9459C54.4377 84.6915 55.9515 83.0168 55.9515 80.9938ZM49.8181 62.3767C50.7282 62.981 51.2501 63.9545 51.2501 65.0476V74.4546C49.0208 74.1078 47.3091 72.1738 47.3091 69.8468L47.2497 61.943C48.1267 61.7117 49.0413 61.8608 49.8181 62.3767ZM24.3775 68.8116L24.5172 68.3982C24.8828 67.3149 25.6949 66.4355 26.745 65.9855C27.7951 65.5355 28.9914 65.5542 30.027 66.037C32.2019 67.0508 34.8313 66.5027 36.4209 64.7041L36.5989 64.5028C36.8617 64.2054 36.8339 63.7511 36.5368 63.4881C36.2396 63.2251 35.7857 63.2529 35.5229 63.5502L35.345 63.7516C34.1736 65.077 32.2361 65.4808 30.6334 64.7337C29.2281 64.0786 27.6046 64.0531 26.1796 64.6639C26.0499 64.7195 25.9237 64.7816 25.7996 64.8466C26.6344 62.6189 28.655 61.0502 31.834 60.1723C34.9907 59.3005 38.3461 59.4129 41.5377 60.4971L45.8132 61.9497L45.8692 65.6641C43.9655 68.2547 41.189 70.0085 38.025 70.6115C34.7851 71.2289 31.48 70.5756 28.7183 68.7718C27.3688 67.8906 25.6674 67.9282 24.3775 68.8116ZM23.4943 80.9938C23.4943 79.838 24.2672 78.86 25.3227 78.5488V82.4452C25.3227 82.7818 25.3349 83.1165 25.3585 83.4491C24.2848 83.1496 23.4943 82.1627 23.4943 80.9938ZM47.6635 91.2475C45.351 93.5621 42.2764 94.8369 39.0059 94.8372C39.0054 94.8372 39.0053 94.8372 39.0047 94.8372C35.7337 94.8372 32.6568 93.5425 30.3415 91.1919C28.0315 88.8465 26.7592 85.7401 26.7592 82.4451V69.5764C27.166 69.6068 27.5696 69.7385 27.9331 69.9759C31.0076 71.9839 34.6869 72.7113 38.2935 72.0239C41.2211 71.4659 43.8511 70.0234 45.8725 67.896V69.8467C45.8725 72.9675 48.2263 75.547 51.25 75.904V82.5811C51.2501 85.8549 49.9764 88.9328 47.6635 91.2475ZM52.6588 83.4467C52.6766 83.1597 52.6866 82.8712 52.6866 82.5811V78.5488C53.7421 78.86 54.515 79.838 54.515 80.9938C54.515 82.1597 53.7285 83.1446 52.6588 83.4467Z" fill="white"/>
    <path d="M31.4977 7.53796H15.8455C14.5245 7.53796 13.4497 8.61363 13.4497 9.9358V20.1666C13.4497 21.4887 14.5245 22.5644 15.8455 22.5644H31.4977C32.8188 22.5644 33.8935 21.4887 33.8935 20.1666V9.9358C33.8935 8.61363 32.8188 7.53796 31.4977 7.53796ZM32.2963 20.1666C32.2963 20.6073 31.9381 20.9658 31.4977 20.9658H15.8455C15.4051 20.9658 15.0469 20.6073 15.0469 20.1666V15.8154H19.8775C20.2386 17.5696 21.7937 18.8926 23.6516 18.8926C25.5096 18.8926 27.0647 17.5696 27.4258 15.8154H32.2963V20.1666ZM21.3956 15.0361C21.3956 13.791 22.4077 12.7781 23.6516 12.7781C24.8956 12.7781 25.9076 13.791 25.9076 15.0361C25.9076 16.2811 24.8956 17.294 23.6516 17.294C22.4077 17.294 21.3956 16.2811 21.3956 15.0361ZM32.2963 14.2168H27.4173C27.041 12.4825 25.4955 11.1796 23.6516 11.1796C21.8077 11.1796 20.2623 12.4825 19.886 14.2168H15.0469V9.9358C15.0469 9.49508 15.4051 9.13652 15.8455 9.13652H31.4977C31.9381 9.13652 32.2963 9.49508 32.2963 9.9358V14.2168Z" fill="white"/>
    <circle cx="45" cy="79" r="1" fill="white"/>
    <circle cx="32" cy="79" r="1" fill="white"/>
</svg>