<svg width="177" height="112" viewBox="0 0 177 112" fill="none" xmlns="http://www.w3.org/2000/svg">
    <rect width="177" height="112" rx="10" fill="#D2D4D9"/>
    <rect y="55.4615" width="177" height="56.5385" rx="10" fill="#C3C7CF"/>
    <rect x="47.3435" y="17.7692" width="116.207" height="4.84615" rx="2.42308" fill="white"/>
    <rect x="13.4498" y="68.3846" width="150.1" height="9.69231" rx="4.84615" fill="white"/>
    <rect x="13.4498" y="83.4615" width="150.1" height="4.84616" rx="2.42308" fill="white"/>
    <rect x="13.4498" y="94.7692" width="150.1" height="4.84615" rx="2.42308" fill="white"/>
    <path d="M11.8359 11.9135V28.4712C11.8359 29.9929 13.0726 31.2308 14.5931 31.2308H31.1364C32.6568 31.2308 33.8936 29.9929 33.8936 28.4712V11.9135C33.8936 10.3917 32.6568 9.15387 31.1364 9.15387H14.5931C13.0726 9.15387 11.8359 10.3917 11.8359 11.9135ZM18.2694 29.3911H14.5931C14.086 29.3911 13.674 28.9788 13.674 28.4712V24.7917H18.2693V29.3911H18.2694ZM25.622 29.3911H20.1075V24.7917H25.622V29.3911ZM32.0555 28.4712C32.0555 28.9787 31.6435 29.3911 31.1364 29.3911H27.4601V23.8718C27.4601 23.3634 27.049 22.9519 26.541 22.9519H13.674V17.4327H32.0554V28.4712H32.0555ZM27.4601 10.9936H31.1364C31.6435 10.9936 32.0555 11.4059 32.0555 11.9135V15.593H27.4602V10.9936H27.4601ZM20.1075 10.9936H25.622V15.5929H20.1075V10.9936ZM18.2694 15.593H13.6741V11.9135C13.6741 11.406 14.086 10.9936 14.5932 10.9936H18.2695V15.593H18.2694Z" fill="white"/>
</svg>
